<?xml version="1.0" encoding="UTF-8"?>
<svg xmlns="http://www.w3.org/2000/svg" width="257" height="34.303" viewBox="0 0 257 34.303" fill="#FFFFFF">
  <g id="Grupo_46" data-name="Grupo 46" transform="translate(7302 141.431)">
    <path id="Caminho_134" data-name="Caminho 134" d="M545.959,23.079V27.93a1.1,1.1,0,1,1-2.2,0V15.136a1.1,1.1,0,1,1,2.2,0v5.746h15.6V12.137c0-4.169-1.874-5.934-9.51-5.934H537.675c-7.636,0-9.51,1.765-9.51,5.934V31.824c0,4.17,1.874,5.934,9.51,5.934h14.373c7.636,0,9.51-1.765,9.51-5.934V23.079Z" transform="translate(-7713.155 -146.26)"/>
    <path id="Caminho_135" data-name="Caminho 135" d="M998.505,23.075v4.853a1.1,1.1,0,0,1-2.2,0V15.136a1.1,1.1,0,0,1,2.2,0v5.747h15.6v-8.75c0-4.169-1.874-5.934-9.51-5.934H990.221c-7.636,0-9.51,1.765-9.51,5.934V31.821c0,4.17,1.874,5.934,9.51,5.934h14.374c7.636,0,9.51-1.765,9.51-5.934V23.075Z" transform="translate(-8065.443 -146.257)"/>
    <rect id="Ret창ngulo_88" data-name="Ret창ngulo 88" width="15.67" height="31.556" transform="translate(-7149.4 -140.058)"/>
    <rect id="Ret창ngulo_89" data-name="Ret창ngulo 89" width="15.67" height="31.556" transform="translate(-7102.598 -140.058)"/>
    <path id="Caminho_136" data-name="Caminho 136" d="M785.108,19.962v-2.2h11.071V6.2H769.433V37.755H785.1V31.529h11.071V19.962Z" transform="translate(-7900.972 -146.256)"/>
    <path id="Caminho_137" data-name="Caminho 137" d="M391.405,6.2H377.032c-7.636,0-9.51,1.765-9.51,5.934V37.754h15.6V15.133a1.1,1.1,0,0,1,2.2,0V37.755h15.6V12.133c0-4.17-1.873-5.934-9.51-5.934" transform="translate(-7588.102 -146.257)"/>
    <path id="Caminho_138" data-name="Caminho 138" d="M230.762,6.2H206.879V37.755h15.6V15.132a1.1,1.1,0,1,1,2.2,0V29.013h6.089c7.636,0,9.51-1.765,9.51-5.934V12.133c0-4.17-1.874-5.934-9.51-5.934" transform="translate(-7463.047 -146.257)"/>
    <path id="Caminho_139" data-name="Caminho 139" d="M1143.817,8.5a2.311,2.311,0,1,1-2.32-2.3h0a2.28,2.28,0,0,1,2.317,2.242c0,.019,0,.039,0,.059m-.522,0a1.789,1.789,0,1,0-1.782,1.808,1.765,1.765,0,0,0,1.783-1.747c0-.02,0-.041,0-.061m-1.324.267.624.917h-.624l-.547-.863h-.256v.863h-.535V7.278h.98c.548,0,.9.292.9.789a.72.72,0,0,1-.548.7m-.8-1.017v.624h.42c.229,0,.369-.1.369-.306s-.14-.318-.369-.318Z" transform="translate(-8188.817 -146.256)"/>
    <path id="Caminho_140" data-name="Caminho 140" d="M57.343,143.092c-1.675,0-5.57.127-5.57,1.3s3.9,1.3,5.57,1.3,5.57-.127,5.57-1.3-3.9-1.3-5.57-1.3" transform="translate(-7342.303 -252.822)"/>
    <path id="Caminho_141" data-name="Caminho 141" d="M32.147,118.506c-7.75,0-12.747.636-12.747,1.88,0,1.043,3.678,1.88,12.747,1.88,7.75,0,12.747-.636,12.747-1.88,0-1.043-3.683-1.88-12.747-1.88" transform="translate(-7317.103 -233.683)"/>
    <path id="Caminho_142" data-name="Caminho 142" d="M20.411,91.062c-3.772,0-16.079.174-16.079,2.409s12.307,2.409,16.079,2.409,16.078-.174,16.078-2.409-12.307-2.409-16.078-2.409" transform="translate(-7305.373 -212.319)"/>
    <path id="Caminho_143" data-name="Caminho 143" d="M17.04,0A17.04,17.04,0,0,0,0,17.04c0,1.3,7.629,2.211,17.04,2.211s17.04-.908,17.04-2.211A17.04,17.04,0,0,0,17.04,0" transform="translate(-7302 -141.431)"/>
  </g>
</svg>
