<svg xmlns="http://www.w3.org/2000/svg" width="1872" height="285.909" viewBox="0 0 1872 285.909">
  <g id="Grupo_66" data-name="Grupo 66" transform="translate(7168.96 137.445)">
    <path id="Caminho_134" data-name="Caminho 134" d="M689.39,159.1v43.95a9.947,9.947,0,1,1-19.893,0V87.136a9.947,9.947,0,1,1,19.893,0V139.2H830.719V59.971C830.719,22.2,813.743,6.2,744.556,6.2H614.329c-69.187,0-86.164,15.994-86.164,53.768V238.335c0,37.782,16.977,53.768,86.164,53.768H744.556c69.187,0,86.163-16,86.163-53.768V159.1Z" transform="translate(-7052.237 -143.639)" fill="#f5f0e1"/>
    <path id="Caminho_135" data-name="Caminho 135" d="M1141.936,159.1v43.968a9.947,9.947,0,0,1-19.894,0V87.175a9.947,9.947,0,0,1,19.894,0V139.24h141.329V59.967c0-37.774-16.975-53.768-86.162-53.768H1066.874c-69.187,0-86.163,15.994-86.163,53.768V238.339c0,37.782,16.976,53.768,86.163,53.768H1197.1c69.187,0,86.162-15.994,86.162-53.768V159.1Z" transform="translate(-6596.418 -143.643)" fill="#f5f0e1"/>
    <rect id="Ret창ngulo_88" data-name="Ret창ngulo 88" width="141.971" height="285.908" transform="translate(-6201.611 -137.444)" fill="#f5f0e1"/>
    <rect id="Ret창ngulo_89" data-name="Ret창ngulo 89" width="141.971" height="285.908" transform="translate(-5777.576 -137.444)" fill="#f5f0e1"/>
    <path id="Caminho_136" data-name="Caminho 136" d="M911.449,130.9V110.97h100.307V6.2H769.433V292.106H911.4V235.7h100.307V130.9Z" transform="translate(-6809.228 -143.643)" fill="#f5f0e1"/>
    <path id="Caminho_137" data-name="Caminho 137" d="M583.913,6.2H453.686c-69.189,0-86.164,15.994-86.164,53.768V292.1H508.851V87.14a9.948,9.948,0,0,1,19.9,0V292.107H670.073V59.967c0-37.782-16.973-53.768-86.16-53.768" transform="translate(-7214.042 -143.643)" fill="#f5f0e1"/>
    <path id="Caminho_138" data-name="Caminho 138" d="M423.268,6.2H206.879V292.107H348.208V87.132a9.947,9.947,0,1,1,19.893,0V212.9h55.167c69.187,0,86.162-15.994,86.162-53.766V59.967c0-37.782-16.975-53.768-86.162-53.768" transform="translate(-7375.839 -143.643)" fill="#f5f0e1"/>
    <path id="Caminho_139" data-name="Caminho 139" d="M1155.388,14.263a8.1,8.1,0,1,1-8.13-8.063h.01a7.989,7.989,0,0,1,8.119,7.857c0,.068,0,.137,0,.206m-1.828,0a6.269,6.269,0,1,0-6.245,6.335,6.182,6.182,0,0,0,6.246-6.122c0-.071,0-.143,0-.213m-4.64.937,2.187,3.212h-2.187L1147,15.388h-.9v3.023h-1.875V9.979h3.433c1.919,0,3.168,1.025,3.168,2.765a2.523,2.523,0,0,1-1.919,2.456m-2.808-3.564v2.187h1.471c.8,0,1.293-.356,1.293-1.072s-.491-1.115-1.293-1.115Z" transform="translate(-6452.348 -143.643)" fill="#f5f0e1"/>
  </g>
</svg>
