<?xml version="1.0" encoding="UTF-8"?>
<svg id="Layer_2" data-name="Layer 2" xmlns="http://www.w3.org/2000/svg" viewBox="0 0 419.9 6.57" fill="#234123">
  <g id="Layer_2-2" data-name="Layer 2">
    <g id="Layer_8" data-name="Layer 8">
      <g>
        <path class="cls-1" d="M419.86,4.71c.23-.16.12-.56-.49-.51-.15.22-.3.43-.45.65.32-.05.64-.1.96-.15,0,0,0,0-.01,0Z"/>
        <path class="cls-1" d="M415.8,3.35c-.73.3-1.57.83-1.13,1.46.73-.62.89-.34,1.67-1.08.61-.06,1.05.24.95.49.23-.16.95.18,1.28-.23-.77-.53-1.78-.59-2.85-.2-.23-.16,0-.32.05-.44,0,0,.01,0,.02,0Z"/>
        <path class="cls-1" d="M356.28.75c.13.03.25.06.38.09-.1-.04-.24-.08-.38-.09Z"/>
        <path class="cls-1" d="M356.28.75c-.33-.08-.66-.15-.99-.23-.07.22.51.17.99.23Z"/>
        <path class="cls-1" d="M407.55,4.7c.21-.02.38-.08.55-.15-.17.02-.33.04-.5.06,0,.04-.02.07-.03.1,0,0,0,0-.01,0Z"/>
        <path class="cls-1" d="M372.56.59c.1,0,.2,0,.3,0,.09-.08.17-.17.26-.26-.19.09-.37.17-.56.26Z"/>
        <path class="cls-1" d="M385.05.8c-.28-.03-.39.53-.51.77.17-.23.38-.33.63-.37,0-.11-.02-.23-.12-.4,0,0,0,0,0,0Z"/>
        <path class="cls-1" d="M404.81,2.34c.12-.02.23-.05.35-.07-.09.02-.25.04-.35.07Z"/>
        <path class="cls-1" d="M363.63.26c-.02-.08-.07-.16-.11-.2,0,.07.04.14.11.2Z"/>
        <path class="cls-1" d="M14.5,5.57s0-.07,0-.1c-.07.06-.09.1,0,.1Z"/>
        <path class="cls-1" d="M-.05,3.23c.07-.01.13-.02.2-.04.02-.11.03-.21.03-.32,0,0-.23.36-.23.36Z"/>
        <path class="cls-1" d="M407.23,4.61c-.17,0-.34,0-.51-.02.23.03.39.03.51.02Z"/>
        <path class="cls-1" d="M46.98,4.43c-.23-.15-.39-.32-.5-.5.17.4-1.4.57.5.5Z"/>
        <path class="cls-1" d="M407.54,4.38c-.06.14-.16.21-.33.23.12,0,.24-.01.36-.02.03-.08.04-.16-.03-.21,0,0,0,0,0,0Z"/>
        <path class="cls-1" d="M264.23,3.12c-.57-.03-1.13-.06-1.7-.09.47.05,1.09.09,1.7.09Z"/>
        <path class="cls-1" d="M123.68,2.92c-.13.03-.26.05-.39.08.15,0,.29,0,.39-.08Z"/>
        <path class="cls-1" d="M257.49,3.07c-.3-.2-.62-.31-.96-.4-.07.04-.15.08-.2.15.38.08.77.17,1.15.25,0,0,0,0,.01,0Z"/>
        <path class="cls-1" d="M35.32,5.55c1.62-.02.74-.74,1.07-1.18,1.92-.26.9.52,1.57.88,1.2-.23,2.11-.92,3.01-.93.07.12.24.16.05.32,1.27-.62,3.79-.13,5.25-.9.11.07.17.13.19.18-.25-.36-.3-.74-.25-1,.73-.03,1.34-.5,1.62-.02-.44,0-.48.19-.68.35.25-.08.5-.15.76-.23.7.67-1.03.27-1.02.78,1.47-.27,3.19-.88,4.34-.7.26.67-2.65.29-1.12.86-.59-.07-1.18-.15-1.77-.22,1.37,1.04-1.07-.04.2,1.07,2.31.14,2.58-.41,4.89-.27.51-.39-.18-.56.33-.95,3.26-.76,2.62,1.65,5.01.68.61-.46.84-1.33,2.56-.92-.19.26-.38.52-.57.78,2.24.03,1.26-1.13,3.61-.67-.41.31-1.75.29-1.41.38,1.53.58,1.06-.46,2.23-.49.08.22.17.45.25.67,2.38-.16,5-.71,7.64-.88-.15.2-.59.42.03.62,3.32-.41,7.11-.06,10.33.29.41-.2.81-.41,1.22-.61.29,0,.54.26.23.38,1.25.2.05-.37.66-.61.71-.05.95.32.5.5,2.2-.54,6.27-1.18,8.61-.59-.15.06-.3.12-.45.18,1.81.21,2.03-1.24,3.72-.72-.11.04-.21.07-.32.11,3.93.18,8.28-.41,11.29.42.56-.86,3.9.32,4.14-.86,2.26.55,1.61.78,4.79,1.12.84.04,1.25-.76,2.29-.89.01.21.03.41.04.62.47-.22.94-.45,1.41-.67.25.24.51.49.76.73.33-.06.65-.12.98-.17-.39-.03-.83-.27-.78-.44,1.53-.3,3.74.38,3.78.69,1.2-.19,2.41-.38,3.61-.56-.08.25-.69.34-1.16.5,1.92-.65.36.65,2.12.04-.24-.14.13-.37.16-.49.88.36,2.89.35,4.38.17-.1.14-.19.29-.29.43,2.69.08,5.66-.26,8.68-.29-1.08-.19-.84-.92.04-1.01.12.22.24.43.36.65.57-.41-.92-.24.24-.74,1.13.07.77.73.12.95.46-.08.91-.16,1.37-.24.08.19-.24.3-.31.54.56-.41,2.37.63,3.17-.08.03.06.05.13.08.19,3.01-.03,4.38-.26,6.83-.31.05-.56,1.01-.45,1.73-.9,1.8.17,3.82.59,5.99.53,1.53-.29.45-.48,1.12-.82.11.51,2.28.44,1.17.82,2.61-.1,3.33-.12,6.63-.56-.36-.21-.76-.3-.55-.48.6-.08,1.36.2,1.28.45-.05.02-.11.03-.16.05,3.7-.79,8.56,1.45,11.5.38-.06.02-.11.03-.17.05,1.02-.19,2.04-.38,3.06-.57,1.41.09-.84.38.2.7,3.3-.87,5.21.1,7.93-.47,2.1,1.5,7.46-.12,10.3.85-.05-.12-.11-.24-.16-.36.73-.35.89.2,1.43.29-.08-.28-.8-.32-.34-.51,6.21-.43,12.82.52,19.19.86,2.33.11,1.33-1.84,4.26-.98-.28.22-.55.44-.83.66,4.7-.78,9.61.06,14.23-.59-.27.15-.28.35-.73.35.97.48,3.59.04,3.61-.35.72.04.17.35.61.55.98.29,2.45-.6,2.97-.12.09.08-.27.16-.45.19.64-.23,2.96.08,2.35-.48,1.73.27,3.3-.23,4.68.11.9-.61,2.96.32,3.25-.56-.13.9,3.03.75,4.12.33-.37.27.95.29.51.66,1.25,0,2.39-.16,2.18-.63,2.29,1.1,4.63-.83,5.91.57,3.71-.46,7.14-.75,10.47-.92-.13.9-3.68.05-3.55,1,3.16-.34,4.99-1.1,8.13-.84.81.13-.46.38-.74.54,3.17-.33,6.1.15,8.92-.3,0,.08-.31.18-.6.23.55-.02,1.29.15,1.22-.26-.18.03-.36.07-.54.1-.87-.61,2.22-1.21,2.32-1.53-.96,1.17,2.77.34,1.26,1.8.36-.08.82-.26.75-.54.54.09.71.25.15.55,1.98-.19,1.29-.64,3.08-.61,0,.2-.37.27-.56.5.92-.38,1.83-.74,3.35-.56-.09.12.08.28-.37.26,2.61-.02,4.46-.97,7.31-.55-.85.85.97.29,1.1,1.05.51-.07,1.03-.13,1.54-.2-.2-.12-.41-.25-.61-.37,1.35.03,2.55-.49,3.71-.23-.34.1-.67.2-1.01.29.84-.03,1.68-.07,2.52-.1-.48-.1-.95-.2-1.43-.3,1.37-.36-.13-.94,1.66-.71-.36.07,1.35.02,2.04.48t0,0c.67-.23,1.36-.47,2.36-.26.26.24-.22.83-.06.98.67-.61,3.16-.12,4.01-.77-.28.15-.3.54-.21.63.19-.17.37-.33.56-.5.62.17.72.25.6.56,1.88.12-.58-.96,1.64-.51-.17.04-.09.12-.46.18,2.24.25,4.33-.24,6.38.05.6.76-1.8.15-1.12.8,2.96-.08,6.16-.78,9.03-.54-.18-.03-.35-.06-.53-.09.42-1.05,2.13.56,3.59.09-.36.07-.48.58-.38.46,1.97.21,4.03-.18,7-.44-.13.09-.25.17-.38.26,1.16.26,3.05.21,4.3.35.38-.26,1.1-.21.66-.61,3.83,1.64,7.38-.66,10.77.71-.41,0-.99.22-.66.22.97-.06,1.94-.12,2.92-.18-.22-.47-.37-.29-.97-.66.38-.26,1.2-.46,1.92-.44-1.32.28,0,.74.56,1.01-.09-.14.11-.3.06-.44,1.5.86.28-.92,2.34-.32-.04.08-.08.16-.12.24.78-.1,1.5-.4,2.34-.32.34.54-.84.23-.9.67,1.18,0,2.36-.95,3.4-.39-.5.14-1.22.12-1.73.26,1.14.66,1.29.5,2.15.62-.03,0-.05,0-.08,0,.66.11,1.33.21,1.99.32-.17-.06-.34-.12-.51-.18,1.51-1.35,3.01-.17,5.02-1.04-1.95.81-.33.49-.5,1.1.51.18,1.27.39,1.05.56.95-.46,1.56.43,2.9-.25.05.19,1,.05.78.53,1.22-.12-.28-.35-.17-.58,1.9-.62,4.4.93,7.13.09,2.34-.31,2.8-.95,4.97-1.22.72.33-.62.69-.62.69,1.17.32,2.06.29,3.18.1-.23.16,0,.31.33.54.89-.02.62-.69,1.78-.37-.21.21-.48.56-.91.75,1.06-.15,2.11-.48,3.2-.62.28.35-.68.5-1.06.71,1.22-.11,3.18-.21,3.58-.74-.26-.07-.52-.14-.77-.21.45-.02.22.47-.12.56-1.06.39-1.5-.24-1.56-.43.26-.03.52-.06.77-.1-.77-1.16-3.12.09-4.67-.02.22-.27.45-.54.67-.81-.54.21-1.08.43-1.62.64-.33-.23-.55-.7.22-.8-1.11-.44-1,.27-1.95-.22-.11-.07-.06-.11.04-.14-.37.07-.73.15-1.1.22.21-.16-.16-.59.5-.46-1.95-.54-3.18.53-3.9-.11.05-.02.11-.03.16-.05-2.73.2-.28.6-2.34,1.26-.44-.52-.89-1.03-1.33-1.55-.1.2-.19.4-.29.6-.28-.03-.84-.09-.72-.33-1.05.39.17.27-.45.65-1.33-.6-3.74.16-4.01-.82-.49.45,1.28.39-.17.68-.38-1.06-1.68.13-2.89-.38.39-.53,1.56-.21.33-.73-.76.89-2.4-.26-3.44-.12-.07.73-2.27.24-4.03.45.12-.24-3.28-.48-4.9-.78.02-.04.04-.08.05-.12-.33.72-2.01.55-3.23.67.06-.44.28-.6.95-.79-.38,0-.77-.02-1.15-.03-.28.23-.64.34-1.38.42.1-.18.2-.36.3-.54-1.53,0-3.1.58-5.05.16-.12.51,1.53,1.47-.56,1.76-.07-.28-.13-.75.41-.85-.18.04-.65.21-.99.09.28-.15.56-.3.84-.45-.89-.22-.48.38-1.19.32.02-.39-.52-.29-.42-.61.18-.04.62.17.9.02-.81-.09-1.77-.34-2.09-.65.06.22-.01.53-.6.57-1.53,0-.51-.48-1.4-.71-.38.26-1.34-.04-1.38.55-.45-.01-.52-.29-.69-.46-.8.24-3.69-.01-2.82.64.07.01.13.03.2.04,0,0-.08,0-.13.03t0,0s0,0,0,0c-2.6.53-5.38-.45-7.95-.25,0-.07,0-.13,0-.2-1.54.2-3.41.06-4.52.47-.45,0-1.06-.38-.87-.62-1.17.13-1.31.34-3-.02,1.19-.32-.4-.32,1.22-.23-1.52-.2-1.86-.53-3.51-.02.57-.5-1.14-.66-1.86-.53.35.13.71.25,1.06.38-.81.05-1.53,0-2.25-.05.13-.22.27-.44.4-.66-3.11-.87-5.65,1.28-8.01-.13-.83.46,1.69.36.95.89-1.43-.12-2.91-1.09-3.36-1.11-1.96-.4-1.85.94-3.91.65.26.24.5.88-1.05,1.07-1.44-.11-1.74-1.03-.84-1.2.34-.01.51.07.5.15.46-.08,1.07-.17.51-.44-.06.08-.13.16-.19.24-.71-.25-2.69-.26-2.21-.65-1.08.21-.47.38.33.52-1.84-.37-2.88-.06-4.77-.32.3.13.57.42.27.41-2.78-.33-1.23.43-3.12.5-1.07-.38.39-.85-1.5-.58-1.16-.27-.24-.63.23-.82-1.74.43-3.23-.35-4.21-.44.3-.06.61-.12.91-.18-.54.1-.99.1-1.44.09.17.16.34.32.51.48-.53-.09-.99-.09-.98-.29-.55.3.41.8-.69,1.2-.71-.25-2.18.23-2.42-.4,2.24.24-.24-.63,1.66-.71-.37.07-.81.06-1.35-.03-.08-.07.08-.13.22-.17-2.13-.59-1,.7-3.22.66.29-.36-.51-.68-.87-.61.9.01.42.6-.4.85-1.42-.3-1.55.19-2.29.14.28.05.57.09.85.14-.29.35-1,.3-2,.39-.08-.28.9-.18.55-.3-1.11.61-2.48-.68-4.03-.28-.71-.25-.06-.67-.68-.84-1.73.44-1.87-.51-3.68-.15.52.49.61.37-.67.82,1-.1,1.99-.2,2.99-.31-.64.22-1.28.45-1.92.67.9.01,1.9-.28,2.43-.19-.92.38-.82.26-.4.67-1.22-.73-2.45.39-3.86-.11.02-.39.04-.79.05-1.18-2.14-.55-3.81.57-6.58.24.3.07.59.15.89.22-.38.47-1.71.05-2.61.23.08-.39-.47-.54-.85-.79.05.29-2.03-.05-2.29.74-.41-.18-.82-.35-1.24-.53-2.24-.23-2.57,1.1-4.72.95.65-.42-.32-.71,1.12-1.01-.72,0-1.37-.09-1.38.19-.42-.25-2,.51-2.65.14-.3.17-.41.59-1.22.54-.09-.08,0-.19,0-.19,0,.19-1.26.26-.57.7-2.2-1.25-6.19.04-8.12-1.03-1.57.12-3.46.24-4.89.26.09-.12,0-.2.27-.16-1.97-.38-1.22,1.12-3.45.7-1.14-.65,1.19-.34.48-.59-.3-1.3-2.7.17-4.2-.6.12-.03.24-.05.36-.08-1.15-.45-2.81.48-4.7.38,0,0,.09-.12.01-.2-1.29.65-3.73.86-5.54,1.05.56-.51.82-.27.48-.79-.81.07.24.83-1.38.97-.53-.28-1.69-.53-1.85-1.08.51,0,1.02-.02,1.53-.03-.78-.71-1.97.01-2.78-.11.03-.1.07-.21.1-.31-2.34.09-2.37.88-4.89.82.09.08.17.16.26.24-1.37.78-1.15-.44-2.52.14-.14-.26-.27-.53-.41-.79-.91.19-3.17.76-4.8.9.92-.59,2.82-.89,4-1.22-.9,0-3.05.06-3.52.45.36-.08.82-.27,1.18-.15-1.1.62-2.55.93-4.34.91.32-1.53-4.67-.39-5.96-1.57-3.17.57-6.29-.24-9.98-.14,1.31,1.19-1.08.03-.85,1.26-.86.08-1.19.06-1.26-.02-.87-.24-1.74-.48-2.6-.72-.62-.36.82-.27.74-.54-1.88-.09-.79-.52-2.03-.83.26.44-.65.63-1.73.46.5.19,1.01.37,1.51.56-2.63.66-2.28-1.02-4.93-.36.28-.13.56-.26.84-.38-1.36.23-5.03.02-6.35.99-.24-.14-.56-.48.04-.56-3.25-.14-7.23,1.08-9.77.49.08-.1.17-.2.25-.3-.61.09-1.06.57-1.81.27.04-.12.24-.3-.04-.32-.32.1-1.61.53-2.41.36.23-.11.46-.23.69-.34-3.18-.37-4.87.85-7.52,1.07,0-.88-2.5-1.15-3.74-1.28.01-.04.03-.08.04-.12-3.69-.08-6.27.78-9.69,1.16-2.13-.94-7.2-.33-10.62-.83.52.15-.07.69-.68.78-.8-.17-2.21.63-2.09-.18.1,0,.19.01.29.02-.61-.78-2.26-.55-3.54-.56-.07.35-.13.71-.2,1.06-3.38-1.5-8.8.67-10.66-.67-.81.27-1.81.28-2.62.56.01-.19.02-.38.03-.57-2.25-.11-3.38-.17-6.15,0,.19-.14.38-.27.56-.41-1.57-.02-1.96,1.66-3.4,1.72-.15-.28-.3-.56-.44-.84-2.73.05-5.52-.64-8.21.17.04-.12.11-.37.56-.41-1.29,0-4.98-.49-4.5.67-.04-.76-2.82-.02-4.29.33.07-.19.15-.38.22-.56-1.24.73-1.27.93-3,1.15-.41-.06-.37-.44.18-.3-1.38-.26-1.06.55-2.74.28.2-.12.41-.25.61-.37-1.41-.01-1.3.17-2.07.6-.89.24-2.68-.09-2.9-.58-.18.31-.95.74-1.79.6-.11-.19.18-.31.33-.38-2.37-.33-3.5.72-5.14.2-.03-.18-.15-.28-.28-.32,1.88-.03,3.39-.03,3.25.01-.01-.51-1.53-.57-.34-1.3-1.21.41-3.28,1.3-4.76,1.09-.07-.05-.14-.1-.2-.18.05-.02.1-.04.15-.06-.34-.04-.65.01-.93.1-.47-.07-.77-.13-1.22-.12-.18-.43-1.75-.19-2.5-.2.07.56-.92.49.02.94-.12-.04.14-.07.65-.1.11-.02.25-.03.32-.07,0,.02-.03.03-.05.05.5-.03,1.14-.05,1.88-.08-.59.3-1.21.56-2.06.25-.38.37-.8.75-1.04.93-1.05-.76-3.06-1.14-3.35-1.62-2.3.37-5.44.33-6.87,1.41-.66.16-.76-.28-1.01-.45.38-.12.83-.11,1.03-.26-1.3.3-3.89.2-4.18.94-1.66-.29.91-.7-1.35-.53.1-.08.2-.16.3-.24-4.5-1.07-7.23,2.05-12.23.67.34.08.52.13.6.24-5.67-.53-11.64.93-17.24.03-1.6-.17-1.75.31-2.7.7-.12-.2-.24-.39-.36-.59-.54.25-1.09.5-1.63.75-2.34.58-4.1-1.36-7.05-.31.13.13.26.27.39.4-1.07-.05-3.37.34-3.21-.13-.11.07-.34.43-.76.23-.01-.11-.03-.21-.04-.32-.87.21-1.74.41-2.6.62-2.04-.17.28-1.26-2.69-1.24C1.56,1.46-.46,2.32-.03,2.52c.44,0,1.15.16,1.19.47-.34.06-.67.13-1.01.19C0,4.12-.75,5.09,1.75,5.67c.57-.21,1.13-.42,1.7-.62.19.14.38.29.57.43-.48.02-.97.05-1.45.07.83.4,1.34,0,1.92-.27.15.24.39.4.74.48.55-.31,1.11-.63,1.66-.94.21.35-.74.74.41.91.78-.43-.78-.8.52-1.11.83.4.6.75,1.56.36.15.24-.06.39-.43.51.85-.32,2.28-.19,2.7-.7.88.49,2.91-.23,2.84.67.26-.22,1.5-.73,2.29-.8-1.42,1.1,2.96-.03,2.61,1.12,1.04-.98,3.85-.53,5.73-1.11-.11.08-.3.24-.48.19,1.07.05,1.39.33,2.07.48.12-.78,1.77-1.01,2.65-1.52,1.33.72-.77.94-.34,1.66-.09-.64,2.25-.69,1.8-1.21,1.01.44.87.21,1.4.84.15-.98.93-.19,1.74-.82,1.46.44.39.91,1.98.57.77.28-.64.67-.64.67,0,0,0,0,0,0ZM73.08,2.97h0c-.33.03-.6.05-.78.06.16,0,.39-.03.78-.06ZM76.25,2.91c-.39-.01-.87-.01-1.38,0-.11-.19,0-.39.32-.39-.17.13.59.23,1.06.39,0,0,0,0,0,0ZM69.45-.85c.5-.09.67.02.74.13-.24,0-.52.04-.88.09,0,.02-.04.05-.06.07.05-.11.1-.21.19-.28,0,0,0,0,0,0Z"/>
        <path class="cls-1" d="M68.57-.09c-.07.01-.11.04-.21.04.1.05.2.09.3.12.06-.06.12-.12.18-.18-.09,0-.19,0-.27,0,0,0,0,0,0,0Z"/>
        <path class="cls-1" d="M356.73.85s-.05,0-.07,0c.06,0,.11.03.14.07-.04-.03-.04-.04-.07-.07Z"/>
        <path class="cls-1" d="M120.15,3.24s0-.09-.01-.14c-.09.04-.19.08-.28.12.1,0,.19.01.29.02Z"/>
        <path class="cls-1" d="M374.19,3.19s.1.1.23.15c0-.04-.11-.09-.23-.15Z"/>
        <path class="cls-1" d="M381.74,3.5c.36.08.71.15,1.07.23-.46-.12-.8-.19-1.07-.23Z"/>
        <path class="cls-1" d="M387.55,3.93c.07-.1.09-.17.12-.24,0,0,0,0-.01,0-.04.08-.07.16-.11.24,0,0,0,0,0,0Z"/>
        <path class="cls-1" d="M295.13,2.77c-.08,0-.16,0-.22.03-.53.1-.17.07.22-.03Z"/>
        <path class="cls-1" d="M322.65,1.87c-.29.1-.58.19-.88.26.49.05.87.06.88-.26Z"/>
        <path class="cls-1" d="M264.42,3.13h0c-.07,0-.12,0-.19,0,.06,0,.13,0,.19,0Z"/>
        <path class="cls-1" d="M320.48,2.1c.49.12.9.1,1.28.02-.4-.05-.87-.11-1.28-.02Z"/>
        <path class="cls-1" d="M412.72,4.91c.09,0,.19.02.28.03,0,0,.01-.07.03-.09-.1.02-.21.04-.31.06Z"/>
        <path class="cls-1" d="M413.04,4.85c.1-.02.21-.04.31-.06-.14,0-.27,0-.31.06Z"/>
        <path class="cls-1" d="M414.01,4.67c-.22.04-.44.08-.65.12.23,0,.51.04.65-.12Z"/>
        <path class="cls-1" d="M405.04,4.42c-.03.07-.06.13-.1.2,0,0,.08-.11.1-.2Z"/>
        <path class="cls-1" d="M402.7,4.41c.56.07,1.39.47,2.17.37.02-.05.05-.11.07-.16-.38.29-1.71-.54-2.25-.22Z"/>
        <path class="cls-1" d="M393.01,1.62c.65.07,1.3.14,1.96.21-.33-.23-.78-.53.12-.56-2.45-.72.5.5-2.07.34Z"/>
        <path class="cls-1" d="M386.94,1.13c1.05-.07,0-.32.05-.44-.68.18-.84.23-.05.44Z"/>
        <path class="cls-1" d="M343.03.12c.04-.17.08-.34.12-.51-.81.05,0,.2-.12.51Z"/>
        <path class="cls-1" d="M334.58,2.6c.26.11.52.22.78.32.13-.15.25-.31.38-.46-.39.05-.78.09-1.16.14Z"/>
      </g>
    </g>
  </g>
</svg>